ISO-10303-21;
HEADER;
/* Generated by software containing ST-Developer
 * from STEP Tools, Inc. (www.steptools.com) 
 */

FILE_DESCRIPTION(
/* description */ (''),
/* implementation_level */ '2;1');

FILE_NAME(
/* name */ 'Desk Organiser.step',
/* time_stamp */ '2026-09-14T02:19:29+05:30',
/* author */ (''),
/* organization */ (''),
/* preprocessor_version */ 'ST-DEVELOPER v20.2',
/* originating_system */ 'Autodesk Translation Framework v15.15.0.0',
/* authorisation */ '');

FILE_SCHEMA (('AUTOMOTIVE_DESIGN { 1 0 10303 214 3 1 1 }'));
ENDSEC;

DATA;
#10=MECHANICAL_DESIGN_GEOMETRIC_PRESENTATION_REPRESENTATION('',(#13),#1399);
#11=SHAPE_REPRESENTATION_RELATIONSHIP('SRR','None',#1406,#12);
#12=ADVANCED_BREP_SHAPE_REPRESENTATION('',(#14),#1398);
#13=STYLED_ITEM('',(#1415),#14);
#14=MANIFOLD_SOLID_BREP('Body1',#853);
#15=CYLINDRICAL_SURFACE('',#886,18.0190989657946);
#16=CYLINDRICAL_SURFACE('',#887,19.9827803557411);
#17=CYLINDRICAL_SURFACE('',#888,5.);
#18=CYLINDRICAL_SURFACE('',#896,5.);
#19=CYLINDRICAL_SURFACE('',#899,20.);
#20=CYLINDRICAL_SURFACE('',#904,20.);
#21=FACE_BOUND('',#87,.T.);
#22=FACE_BOUND('',#123,.T.);
#23=FACE_BOUND('',#131,.T.);
#24=CIRCLE('',#869,19.9827803557411);
#25=CIRCLE('',#870,18.0190989657946);
#26=CIRCLE('',#879,19.9827803557411);
#27=CIRCLE('',#880,20.);
#28=CIRCLE('',#881,20.);
#29=CIRCLE('',#883,18.0190989657946);
#30=CIRCLE('',#889,5.);
#31=CIRCLE('',#890,5.);
#32=CIRCLE('',#893,20.);
#33=CIRCLE('',#894,20.);
#34=CIRCLE('',#895,5.);
#35=CIRCLE('',#897,5.);
#36=CIRCLE('',#900,20.);
#37=CIRCLE('',#901,20.);
#38=CIRCLE('',#905,20.);
#39=CIRCLE('',#906,20.);
#40=FACE_OUTER_BOUND('',#85,.T.);
#41=FACE_OUTER_BOUND('',#86,.T.);
#42=FACE_OUTER_BOUND('',#88,.T.);
#43=FACE_OUTER_BOUND('',#89,.T.);
#44=FACE_OUTER_BOUND('',#90,.T.);
#45=FACE_OUTER_BOUND('',#91,.T.);
#46=FACE_OUTER_BOUND('',#92,.T.);
#47=FACE_OUTER_BOUND('',#93,.T.);
#48=FACE_OUTER_BOUND('',#94,.T.);
#49=FACE_OUTER_BOUND('',#95,.T.);
#50=FACE_OUTER_BOUND('',#96,.T.);
#51=FACE_OUTER_BOUND('',#97,.T.);
#52=FACE_OUTER_BOUND('',#98,.T.);
#53=FACE_OUTER_BOUND('',#99,.T.);
#54=FACE_OUTER_BOUND('',#100,.T.);
#55=FACE_OUTER_BOUND('',#101,.T.);
#56=FACE_OUTER_BOUND('',#102,.T.);
#57=FACE_OUTER_BOUND('',#103,.T.);
#58=FACE_OUTER_BOUND('',#104,.T.);
#59=FACE_OUTER_BOUND('',#105,.T.);
#60=FACE_OUTER_BOUND('',#106,.T.);
#61=FACE_OUTER_BOUND('',#107,.T.);
#62=FACE_OUTER_BOUND('',#108,.T.);
#63=FACE_OUTER_BOUND('',#109,.T.);
#64=FACE_OUTER_BOUND('',#110,.T.);
#65=FACE_OUTER_BOUND('',#111,.T.);
#66=FACE_OUTER_BOUND('',#112,.T.);
#67=FACE_OUTER_BOUND('',#113,.T.);
#68=FACE_OUTER_BOUND('',#114,.T.);
#69=FACE_OUTER_BOUND('',#115,.T.);
#70=FACE_OUTER_BOUND('',#116,.T.);
#71=FACE_OUTER_BOUND('',#117,.T.);
#72=FACE_OUTER_BOUND('',#118,.T.);
#73=FACE_OUTER_BOUND('',#119,.T.);
#74=FACE_OUTER_BOUND('',#120,.T.);
#75=FACE_OUTER_BOUND('',#121,.T.);
#76=FACE_OUTER_BOUND('',#122,.T.);
#77=FACE_OUTER_BOUND('',#124,.T.);
#78=FACE_OUTER_BOUND('',#125,.T.);
#79=FACE_OUTER_BOUND('',#126,.T.);
#80=FACE_OUTER_BOUND('',#127,.T.);
#81=FACE_OUTER_BOUND('',#128,.T.);
#82=FACE_OUTER_BOUND('',#129,.T.);
#83=FACE_OUTER_BOUND('',#130,.T.);
#84=FACE_OUTER_BOUND('',#132,.T.);
#85=EDGE_LOOP('',(#533,#534,#535,#536));
#86=EDGE_LOOP('',(#537,#538,#539,#540,#541,#542,#543));
#87=EDGE_LOOP('',(#544,#545,#546,#547));
#88=EDGE_LOOP('',(#548,#549,#550,#551));
#89=EDGE_LOOP('',(#552,#553,#554,#555));
#90=EDGE_LOOP('',(#556,#557,#558,#559));
#91=EDGE_LOOP('',(#560,#561,#562,#563,#564));
#92=EDGE_LOOP('',(#565,#566,#567,#568));
#93=EDGE_LOOP('',(#569,#570,#571,#572));
#94=EDGE_LOOP('',(#573,#574,#575,#576));
#95=EDGE_LOOP('',(#577,#578,#579,#580,#581,#582,#583,#584,#585,#586,#587,
#588,#589,#590));
#96=EDGE_LOOP('',(#591,#592,#593,#594));
#97=EDGE_LOOP('',(#595,#596,#597,#598));
#98=EDGE_LOOP('',(#599,#600,#601,#602,#603));
#99=EDGE_LOOP('',(#604,#605,#606,#607));
#100=EDGE_LOOP('',(#608,#609,#610,#611));
#101=EDGE_LOOP('',(#612,#613,#614,#615));
#102=EDGE_LOOP('',(#616,#617,#618,#619,#620,#621,#622,#623));
#103=EDGE_LOOP('',(#624,#625,#626,#627,#628,#629,#630,#631));
#104=EDGE_LOOP('',(#632,#633,#634,#635));
#105=EDGE_LOOP('',(#636,#637,#638,#639,#640,#641));
#106=EDGE_LOOP('',(#642,#643,#644,#645,#646,#647,#648,#649));
#107=EDGE_LOOP('',(#650,#651,#652,#653));
#108=EDGE_LOOP('',(#654,#655,#656,#657));
#109=EDGE_LOOP('',(#658,#659,#660,#661,#662,#663,#664,#665));
#110=EDGE_LOOP('',(#666,#667,#668,#669));
#111=EDGE_LOOP('',(#670,#671,#672,#673));
#112=EDGE_LOOP('',(#674,#675,#676,#677));
#113=EDGE_LOOP('',(#678,#679,#680,#681));
#114=EDGE_LOOP('',(#682,#683,#684,#685));
#115=EDGE_LOOP('',(#686,#687,#688,#689,#690,#691));
#116=EDGE_LOOP('',(#692,#693,#694,#695,#696,#697));
#117=EDGE_LOOP('',(#698,#699,#700,#701));
#118=EDGE_LOOP('',(#702,#703,#704,#705));
#119=EDGE_LOOP('',(#706,#707,#708,#709));
#120=EDGE_LOOP('',(#710,#711,#712,#713));
#121=EDGE_LOOP('',(#714,#715,#716,#717,#718,#719));
#122=EDGE_LOOP('',(#720,#721,#722,#723,#724,#725));
#123=EDGE_LOOP('',(#726,#727,#728,#729));
#124=EDGE_LOOP('',(#730,#731,#732,#733));
#125=EDGE_LOOP('',(#734,#735,#736,#737));
#126=EDGE_LOOP('',(#738,#739,#740,#741));
#127=EDGE_LOOP('',(#742,#743,#744,#745));
#128=EDGE_LOOP('',(#746,#747,#748,#749));
#129=EDGE_LOOP('',(#750,#751,#752,#753));
#130=EDGE_LOOP('',(#754,#755,#756,#757,#758,#759,#760));
#131=EDGE_LOOP('',(#761,#762,#763,#764));
#132=EDGE_LOOP('',(#765,#766,#767,#768));
#133=LINE('',#1158,#235);
#134=LINE('',#1160,#236);
#135=LINE('',#1162,#237);
#136=LINE('',#1163,#238);
#137=LINE('',#1169,#239);
#138=LINE('',#1171,#240);
#139=LINE('',#1173,#241);
#140=LINE('',#1174,#242);
#141=LINE('',#1175,#243);
#142=LINE('',#1180,#244);
#143=LINE('',#1182,#245);
#144=LINE('',#1183,#246);
#145=LINE('',#1187,#247);
#146=LINE('',#1188,#248);
#147=LINE('',#1189,#249);
#148=LINE('',#1192,#250);
#149=LINE('',#1194,#251);
#150=LINE('',#1196,#252);
#151=LINE('',#1197,#253);
#152=LINE('',#1200,#254);
#153=LINE('',#1202,#255);
#154=LINE('',#1203,#256);
#155=LINE('',#1206,#257);
#156=LINE('',#1208,#258);
#157=LINE('',#1209,#259);
#158=LINE('',#1212,#260);
#159=LINE('',#1214,#261);
#160=LINE('',#1215,#262);
#161=LINE('',#1218,#263);
#162=LINE('',#1219,#264);
#163=LINE('',#1222,#265);
#164=LINE('',#1223,#266);
#165=LINE('',#1227,#267);
#166=LINE('',#1229,#268);
#167=LINE('',#1231,#269);
#168=LINE('',#1233,#270);
#169=LINE('',#1237,#271);
#170=LINE('',#1241,#272);
#171=LINE('',#1242,#273);
#172=LINE('',#1245,#274);
#173=LINE('',#1248,#275);
#174=LINE('',#1250,#276);
#175=LINE('',#1258,#277);
#176=LINE('',#1261,#278);
#177=LINE('',#1263,#279);
#178=LINE('',#1265,#280);
#179=LINE('',#1267,#281);
#180=LINE('',#1268,#282);
#181=LINE('',#1271,#283);
#182=LINE('',#1275,#284);
#183=LINE('',#1279,#285);
#184=LINE('',#1284,#286);
#185=LINE('',#1287,#287);
#186=LINE('',#1289,#288);
#187=LINE('',#1291,#289);
#188=LINE('',#1292,#290);
#189=LINE('',#1297,#291);
#190=LINE('',#1300,#292);
#191=LINE('',#1301,#293);
#192=LINE('',#1304,#294);
#193=LINE('',#1305,#295);
#194=LINE('',#1308,#296);
#195=LINE('',#1309,#297);
#196=LINE('',#1314,#298);
#197=LINE('',#1317,#299);
#198=LINE('',#1318,#300);
#199=LINE('',#1320,#301);
#200=LINE('',#1323,#302);
#201=LINE('',#1325,#303);
#202=LINE('',#1326,#304);
#203=LINE('',#1329,#305);
#204=LINE('',#1331,#306);
#205=LINE('',#1334,#307);
#206=LINE('',#1335,#308);
#207=LINE('',#1338,#309);
#208=LINE('',#1339,#310);
#209=LINE('',#1343,#311);
#210=LINE('',#1345,#312);
#211=LINE('',#1347,#313);
#212=LINE('',#1348,#314);
#213=LINE('',#1351,#315);
#214=LINE('',#1353,#316);
#215=LINE('',#1354,#317);
#216=LINE('',#1357,#318);
#217=LINE('',#1359,#319);
#218=LINE('',#1360,#320);
#219=LINE('',#1362,#321);
#220=LINE('',#1363,#322);
#221=LINE('',#1365,#323);
#222=LINE('',#1371,#324);
#223=LINE('',#1373,#325);
#224=LINE('',#1375,#326);
#225=LINE('',#1376,#327);
#226=LINE('',#1379,#328);
#227=LINE('',#1381,#329);
#228=LINE('',#1382,#330);
#229=LINE('',#1385,#331);
#230=LINE('',#1387,#332);
#231=LINE('',#1388,#333);
#232=LINE('',#1390,#334);
#233=LINE('',#1391,#335);
#234=LINE('',#1393,#336);
#235=VECTOR('',#932,10.);
#236=VECTOR('',#933,10.);
#237=VECTOR('',#934,10.);
#238=VECTOR('',#935,10.);
#239=VECTOR('',#940,10.);
#240=VECTOR('',#941,10.);
#241=VECTOR('',#942,10.);
#242=VECTOR('',#943,10.);
#243=VECTOR('',#944,10.);
#244=VECTOR('',#947,10.);
#245=VECTOR('',#948,10.);
#246=VECTOR('',#949,10.);
#247=VECTOR('',#952,10.);
#248=VECTOR('',#953,10.);
#249=VECTOR('',#954,10.);
#250=VECTOR('',#957,10.);
#251=VECTOR('',#958,10.);
#252=VECTOR('',#959,10.);
#253=VECTOR('',#960,10.);
#254=VECTOR('',#963,10.);
#255=VECTOR('',#964,10.);
#256=VECTOR('',#965,10.);
#257=VECTOR('',#968,10.);
#258=VECTOR('',#969,10.);
#259=VECTOR('',#970,10.);
#260=VECTOR('',#973,10.);
#261=VECTOR('',#974,10.);
#262=VECTOR('',#975,10.);
#263=VECTOR('',#978,10.);
#264=VECTOR('',#979,10.);
#265=VECTOR('',#982,10.);
#266=VECTOR('',#983,10.);
#267=VECTOR('',#988,10.);
#268=VECTOR('',#989,10.);
#269=VECTOR('',#990,10.);
#270=VECTOR('',#991,10.);
#271=VECTOR('',#994,10.);
#272=VECTOR('',#997,10.);
#273=VECTOR('',#998,10.);
#274=VECTOR('',#1001,10.);
#275=VECTOR('',#1006,10.);
#276=VECTOR('',#1009,10.);
#277=VECTOR('',#1018,10.);
#278=VECTOR('',#1021,10.);
#279=VECTOR('',#1024,10.);
#280=VECTOR('',#1025,10.);
#281=VECTOR('',#1026,10.);
#282=VECTOR('',#1027,10.);
#283=VECTOR('',#1030,10.);
#284=VECTOR('',#1033,10.);
#285=VECTOR('',#1036,10.);
#286=VECTOR('',#1043,10.);
#287=VECTOR('',#1046,10.);
#288=VECTOR('',#1047,10.);
#289=VECTOR('',#1048,10.);
#290=VECTOR('',#1049,10.);
#291=VECTOR('',#1054,10.);
#292=VECTOR('',#1057,10.);
#293=VECTOR('',#1058,10.);
#294=VECTOR('',#1061,10.);
#295=VECTOR('',#1062,10.);
#296=VECTOR('',#1065,10.);
#297=VECTOR('',#1066,10.);
#298=VECTOR('',#1071,10.);
#299=VECTOR('',#1074,10.);
#300=VECTOR('',#1075,10.);
#301=VECTOR('',#1078,10.);
#302=VECTOR('',#1081,10.);
#303=VECTOR('',#1082,10.);
#304=VECTOR('',#1083,10.);
#305=VECTOR('',#1088,10.);
#306=VECTOR('',#1091,10.);
#307=VECTOR('',#1094,10.);
#308=VECTOR('',#1095,10.);
#309=VECTOR('',#1098,10.);
#310=VECTOR('',#1099,10.);
#311=VECTOR('',#1102,10.);
#312=VECTOR('',#1103,10.);
#313=VECTOR('',#1104,10.);
#314=VECTOR('',#1105,10.);
#315=VECTOR('',#1108,10.);
#316=VECTOR('',#1109,10.);
#317=VECTOR('',#1110,10.);
#318=VECTOR('',#1113,10.);
#319=VECTOR('',#1114,10.);
#320=VECTOR('',#1115,10.);
#321=VECTOR('',#1118,10.);
#322=VECTOR('',#1119,10.);
#323=VECTOR('',#1122,10.);
#324=VECTOR('',#1129,10.);
#325=VECTOR('',#1130,10.);
#326=VECTOR('',#1131,10.);
#327=VECTOR('',#1132,10.);
#328=VECTOR('',#1135,10.);
#329=VECTOR('',#1136,10.);
#330=VECTOR('',#1137,10.);
#331=VECTOR('',#1140,10.);
#332=VECTOR('',#1141,10.);
#333=VECTOR('',#1142,10.);
#334=VECTOR('',#1145,10.);
#335=VECTOR('',#1146,10.);
#336=VECTOR('',#1149,10.);
#337=VERTEX_POINT('',#1156);
#338=VERTEX_POINT('',#1157);
#339=VERTEX_POINT('',#1159);
#340=VERTEX_POINT('',#1161);
#341=VERTEX_POINT('',#1165);
#342=VERTEX_POINT('',#1166);
#343=VERTEX_POINT('',#1168);
#344=VERTEX_POINT('',#1170);
#345=VERTEX_POINT('',#1172);
#346=VERTEX_POINT('',#1176);
#347=VERTEX_POINT('',#1177);
#348=VERTEX_POINT('',#1179);
#349=VERTEX_POINT('',#1181);
#350=VERTEX_POINT('',#1185);
#351=VERTEX_POINT('',#1186);
#352=VERTEX_POINT('',#1191);
#353=VERTEX_POINT('',#1193);
#354=VERTEX_POINT('',#1195);
#355=VERTEX_POINT('',#1199);
#356=VERTEX_POINT('',#1201);
#357=VERTEX_POINT('',#1205);
#358=VERTEX_POINT('',#1207);
#359=VERTEX_POINT('',#1211);
#360=VERTEX_POINT('',#1213);
#361=VERTEX_POINT('',#1217);
#362=VERTEX_POINT('',#1221);
#363=VERTEX_POINT('',#1225);
#364=VERTEX_POINT('',#1228);
#365=VERTEX_POINT('',#1230);
#366=VERTEX_POINT('',#1232);
#367=VERTEX_POINT('',#1234);
#368=VERTEX_POINT('',#1236);
#369=VERTEX_POINT('',#1238);
#370=VERTEX_POINT('',#1240);
#371=VERTEX_POINT('',#1244);
#372=VERTEX_POINT('',#1254);
#373=VERTEX_POINT('',#1255);
#374=VERTEX_POINT('',#1257);
#375=VERTEX_POINT('',#1259);
#376=VERTEX_POINT('',#1264);
#377=VERTEX_POINT('',#1266);
#378=VERTEX_POINT('',#1270);
#379=VERTEX_POINT('',#1272);
#380=VERTEX_POINT('',#1274);
#381=VERTEX_POINT('',#1276);
#382=VERTEX_POINT('',#1278);
#383=VERTEX_POINT('',#1282);
#384=VERTEX_POINT('',#1286);
#385=VERTEX_POINT('',#1288);
#386=VERTEX_POINT('',#1290);
#387=VERTEX_POINT('',#1294);
#388=VERTEX_POINT('',#1296);
#389=VERTEX_POINT('',#1298);
#390=VERTEX_POINT('',#1303);
#391=VERTEX_POINT('',#1307);
#392=VERTEX_POINT('',#1311);
#393=VERTEX_POINT('',#1313);
#394=VERTEX_POINT('',#1315);
#395=VERTEX_POINT('',#1322);
#396=VERTEX_POINT('',#1324);
#397=VERTEX_POINT('',#1333);
#398=VERTEX_POINT('',#1337);
#399=VERTEX_POINT('',#1341);
#400=VERTEX_POINT('',#1342);
#401=VERTEX_POINT('',#1344);
#402=VERTEX_POINT('',#1346);
#403=VERTEX_POINT('',#1350);
#404=VERTEX_POINT('',#1352);
#405=VERTEX_POINT('',#1356);
#406=VERTEX_POINT('',#1358);
#407=VERTEX_POINT('',#1369);
#408=VERTEX_POINT('',#1370);
#409=VERTEX_POINT('',#1372);
#410=VERTEX_POINT('',#1374);
#411=VERTEX_POINT('',#1378);
#412=VERTEX_POINT('',#1380);
#413=VERTEX_POINT('',#1384);
#414=VERTEX_POINT('',#1386);
#415=EDGE_CURVE('',#337,#338,#133,.T.);
#416=EDGE_CURVE('',#337,#339,#134,.T.);
#417=EDGE_CURVE('',#340,#339,#135,.T.);
#418=EDGE_CURVE('',#338,#340,#136,.T.);
#419=EDGE_CURVE('',#341,#342,#24,.T.);
#420=EDGE_CURVE('',#342,#343,#137,.T.);
#421=EDGE_CURVE('',#343,#344,#138,.T.);
#422=EDGE_CURVE('',#344,#345,#139,.T.);
#423=EDGE_CURVE('',#345,#340,#140,.T.);
#424=EDGE_CURVE('',#339,#341,#141,.T.);
#425=EDGE_CURVE('',#346,#347,#25,.T.);
#426=EDGE_CURVE('',#347,#348,#142,.T.);
#427=EDGE_CURVE('',#348,#349,#143,.T.);
#428=EDGE_CURVE('',#349,#346,#144,.T.);
#429=EDGE_CURVE('',#350,#351,#145,.T.);
#430=EDGE_CURVE('',#345,#350,#146,.T.);
#431=EDGE_CURVE('',#351,#344,#147,.T.);
#432=EDGE_CURVE('',#337,#352,#148,.T.);
#433=EDGE_CURVE('',#337,#353,#149,.T.);
#434=EDGE_CURVE('',#354,#353,#150,.T.);
#435=EDGE_CURVE('',#352,#354,#151,.T.);
#436=EDGE_CURVE('',#349,#355,#152,.T.);
#437=EDGE_CURVE('',#356,#348,#153,.T.);
#438=EDGE_CURVE('',#355,#356,#154,.T.);
#439=EDGE_CURVE('',#357,#343,#155,.T.);
#440=EDGE_CURVE('',#358,#357,#156,.T.);
#441=EDGE_CURVE('',#351,#358,#157,.T.);
#442=EDGE_CURVE('',#359,#358,#158,.T.);
#443=EDGE_CURVE('',#359,#360,#159,.T.);
#444=EDGE_CURVE('',#351,#360,#160,.T.);
#445=EDGE_CURVE('',#361,#342,#161,.T.);
#446=EDGE_CURVE('',#357,#361,#162,.T.);
#447=EDGE_CURVE('',#362,#355,#163,.T.);
#448=EDGE_CURVE('',#346,#362,#164,.T.);
#449=EDGE_CURVE('',#361,#363,#26,.T.);
#450=EDGE_CURVE('',#363,#352,#165,.T.);
#451=EDGE_CURVE('',#354,#364,#166,.T.);
#452=EDGE_CURVE('',#364,#365,#167,.T.);
#453=EDGE_CURVE('',#365,#366,#168,.T.);
#454=EDGE_CURVE('',#367,#366,#27,.T.);
#455=EDGE_CURVE('',#367,#368,#169,.T.);
#456=EDGE_CURVE('',#369,#368,#28,.T.);
#457=EDGE_CURVE('',#369,#370,#170,.T.);
#458=EDGE_CURVE('',#370,#359,#171,.T.);
#459=EDGE_CURVE('',#356,#371,#172,.T.);
#460=EDGE_CURVE('',#371,#362,#29,.T.);
#461=EDGE_CURVE('',#371,#347,#173,.T.);
#462=EDGE_CURVE('',#341,#363,#174,.T.);
#463=EDGE_CURVE('',#372,#373,#30,.T.);
#464=EDGE_CURVE('',#373,#374,#175,.T.);
#465=EDGE_CURVE('',#374,#375,#31,.T.);
#466=EDGE_CURVE('',#375,#372,#176,.T.);
#467=EDGE_CURVE('',#372,#350,#177,.T.);
#468=EDGE_CURVE('',#376,#375,#178,.T.);
#469=EDGE_CURVE('',#377,#376,#179,.T.);
#470=EDGE_CURVE('',#377,#338,#180,.T.);
#471=EDGE_CURVE('',#374,#378,#181,.T.);
#472=EDGE_CURVE('',#379,#378,#32,.T.);
#473=EDGE_CURVE('',#379,#380,#182,.T.);
#474=EDGE_CURVE('',#381,#380,#33,.T.);
#475=EDGE_CURVE('',#382,#381,#183,.T.);
#476=EDGE_CURVE('',#376,#382,#34,.T.);
#477=EDGE_CURVE('',#383,#377,#35,.T.);
#478=EDGE_CURVE('',#382,#383,#184,.T.);
#479=EDGE_CURVE('',#384,#381,#185,.T.);
#480=EDGE_CURVE('',#385,#384,#186,.T.);
#481=EDGE_CURVE('',#385,#386,#187,.T.);
#482=EDGE_CURVE('',#383,#386,#188,.T.);
#483=EDGE_CURVE('',#387,#384,#36,.T.);
#484=EDGE_CURVE('',#380,#388,#189,.T.);
#485=EDGE_CURVE('',#388,#389,#37,.T.);
#486=EDGE_CURVE('',#389,#367,#190,.T.);
#487=EDGE_CURVE('',#366,#387,#191,.T.);
#488=EDGE_CURVE('',#390,#379,#192,.T.);
#489=EDGE_CURVE('',#388,#390,#193,.T.);
#490=EDGE_CURVE('',#387,#391,#194,.T.);
#491=EDGE_CURVE('',#385,#391,#195,.T.);
#492=EDGE_CURVE('',#392,#390,#38,.T.);
#493=EDGE_CURVE('',#378,#393,#196,.T.);
#494=EDGE_CURVE('',#393,#394,#39,.T.);
#495=EDGE_CURVE('',#394,#369,#197,.T.);
#496=EDGE_CURVE('',#368,#392,#198,.T.);
#497=EDGE_CURVE('',#392,#389,#199,.T.);
#498=EDGE_CURVE('',#393,#395,#200,.T.);
#499=EDGE_CURVE('',#396,#395,#201,.T.);
#500=EDGE_CURVE('',#396,#394,#202,.T.);
#501=EDGE_CURVE('',#370,#396,#203,.T.);
#502=EDGE_CURVE('',#391,#365,#204,.T.);
#503=EDGE_CURVE('',#364,#397,#205,.T.);
#504=EDGE_CURVE('',#386,#397,#206,.T.);
#505=EDGE_CURVE('',#395,#398,#207,.T.);
#506=EDGE_CURVE('',#360,#398,#208,.T.);
#507=EDGE_CURVE('',#399,#400,#209,.T.);
#508=EDGE_CURVE('',#399,#401,#210,.T.);
#509=EDGE_CURVE('',#402,#401,#211,.T.);
#510=EDGE_CURVE('',#400,#402,#212,.T.);
#511=EDGE_CURVE('',#403,#399,#213,.T.);
#512=EDGE_CURVE('',#403,#404,#214,.T.);
#513=EDGE_CURVE('',#401,#404,#215,.T.);
#514=EDGE_CURVE('',#400,#405,#216,.T.);
#515=EDGE_CURVE('',#406,#402,#217,.T.);
#516=EDGE_CURVE('',#405,#406,#218,.T.);
#517=EDGE_CURVE('',#405,#403,#219,.T.);
#518=EDGE_CURVE('',#404,#406,#220,.T.);
#519=EDGE_CURVE('',#398,#373,#221,.T.);
#520=EDGE_CURVE('',#407,#408,#222,.T.);
#521=EDGE_CURVE('',#407,#409,#223,.T.);
#522=EDGE_CURVE('',#410,#409,#224,.T.);
#523=EDGE_CURVE('',#408,#410,#225,.T.);
#524=EDGE_CURVE('',#411,#407,#226,.T.);
#525=EDGE_CURVE('',#411,#412,#227,.T.);
#526=EDGE_CURVE('',#409,#412,#228,.T.);
#527=EDGE_CURVE('',#408,#413,#229,.T.);
#528=EDGE_CURVE('',#414,#410,#230,.T.);
#529=EDGE_CURVE('',#413,#414,#231,.T.);
#530=EDGE_CURVE('',#413,#411,#232,.T.);
#531=EDGE_CURVE('',#412,#414,#233,.T.);
#532=EDGE_CURVE('',#397,#353,#234,.T.);
#533=ORIENTED_EDGE('',*,*,#415,.F.);
#534=ORIENTED_EDGE('',*,*,#416,.T.);
#535=ORIENTED_EDGE('',*,*,#417,.F.);
#536=ORIENTED_EDGE('',*,*,#418,.F.);
#537=ORIENTED_EDGE('',*,*,#419,.T.);
#538=ORIENTED_EDGE('',*,*,#420,.T.);
#539=ORIENTED_EDGE('',*,*,#421,.T.);
#540=ORIENTED_EDGE('',*,*,#422,.T.);
#541=ORIENTED_EDGE('',*,*,#423,.T.);
#542=ORIENTED_EDGE('',*,*,#417,.T.);
#543=ORIENTED_EDGE('',*,*,#424,.T.);
#544=ORIENTED_EDGE('',*,*,#425,.T.);
#545=ORIENTED_EDGE('',*,*,#426,.T.);
#546=ORIENTED_EDGE('',*,*,#427,.T.);
#547=ORIENTED_EDGE('',*,*,#428,.T.);
#548=ORIENTED_EDGE('',*,*,#429,.F.);
#549=ORIENTED_EDGE('',*,*,#430,.F.);
#550=ORIENTED_EDGE('',*,*,#422,.F.);
#551=ORIENTED_EDGE('',*,*,#431,.F.);
#552=ORIENTED_EDGE('',*,*,#432,.F.);
#553=ORIENTED_EDGE('',*,*,#433,.T.);
#554=ORIENTED_EDGE('',*,*,#434,.F.);
#555=ORIENTED_EDGE('',*,*,#435,.F.);
#556=ORIENTED_EDGE('',*,*,#436,.F.);
#557=ORIENTED_EDGE('',*,*,#427,.F.);
#558=ORIENTED_EDGE('',*,*,#437,.F.);
#559=ORIENTED_EDGE('',*,*,#438,.F.);
#560=ORIENTED_EDGE('',*,*,#439,.F.);
#561=ORIENTED_EDGE('',*,*,#440,.F.);
#562=ORIENTED_EDGE('',*,*,#441,.F.);
#563=ORIENTED_EDGE('',*,*,#431,.T.);
#564=ORIENTED_EDGE('',*,*,#421,.F.);
#565=ORIENTED_EDGE('',*,*,#441,.T.);
#566=ORIENTED_EDGE('',*,*,#442,.F.);
#567=ORIENTED_EDGE('',*,*,#443,.T.);
#568=ORIENTED_EDGE('',*,*,#444,.F.);
#569=ORIENTED_EDGE('',*,*,#439,.T.);
#570=ORIENTED_EDGE('',*,*,#420,.F.);
#571=ORIENTED_EDGE('',*,*,#445,.F.);
#572=ORIENTED_EDGE('',*,*,#446,.F.);
#573=ORIENTED_EDGE('',*,*,#436,.T.);
#574=ORIENTED_EDGE('',*,*,#447,.F.);
#575=ORIENTED_EDGE('',*,*,#448,.F.);
#576=ORIENTED_EDGE('',*,*,#428,.F.);
#577=ORIENTED_EDGE('',*,*,#440,.T.);
#578=ORIENTED_EDGE('',*,*,#446,.T.);
#579=ORIENTED_EDGE('',*,*,#449,.T.);
#580=ORIENTED_EDGE('',*,*,#450,.T.);
#581=ORIENTED_EDGE('',*,*,#435,.T.);
#582=ORIENTED_EDGE('',*,*,#451,.T.);
#583=ORIENTED_EDGE('',*,*,#452,.T.);
#584=ORIENTED_EDGE('',*,*,#453,.T.);
#585=ORIENTED_EDGE('',*,*,#454,.F.);
#586=ORIENTED_EDGE('',*,*,#455,.T.);
#587=ORIENTED_EDGE('',*,*,#456,.F.);
#588=ORIENTED_EDGE('',*,*,#457,.T.);
#589=ORIENTED_EDGE('',*,*,#458,.T.);
#590=ORIENTED_EDGE('',*,*,#442,.T.);
#591=ORIENTED_EDGE('',*,*,#438,.T.);
#592=ORIENTED_EDGE('',*,*,#459,.T.);
#593=ORIENTED_EDGE('',*,*,#460,.T.);
#594=ORIENTED_EDGE('',*,*,#447,.T.);
#595=ORIENTED_EDGE('',*,*,#437,.T.);
#596=ORIENTED_EDGE('',*,*,#426,.F.);
#597=ORIENTED_EDGE('',*,*,#461,.F.);
#598=ORIENTED_EDGE('',*,*,#459,.F.);
#599=ORIENTED_EDGE('',*,*,#432,.T.);
#600=ORIENTED_EDGE('',*,*,#450,.F.);
#601=ORIENTED_EDGE('',*,*,#462,.F.);
#602=ORIENTED_EDGE('',*,*,#424,.F.);
#603=ORIENTED_EDGE('',*,*,#416,.F.);
#604=ORIENTED_EDGE('',*,*,#461,.T.);
#605=ORIENTED_EDGE('',*,*,#425,.F.);
#606=ORIENTED_EDGE('',*,*,#448,.T.);
#607=ORIENTED_EDGE('',*,*,#460,.F.);
#608=ORIENTED_EDGE('',*,*,#445,.T.);
#609=ORIENTED_EDGE('',*,*,#419,.F.);
#610=ORIENTED_EDGE('',*,*,#462,.T.);
#611=ORIENTED_EDGE('',*,*,#449,.F.);
#612=ORIENTED_EDGE('',*,*,#463,.T.);
#613=ORIENTED_EDGE('',*,*,#464,.T.);
#614=ORIENTED_EDGE('',*,*,#465,.T.);
#615=ORIENTED_EDGE('',*,*,#466,.T.);
#616=ORIENTED_EDGE('',*,*,#467,.F.);
#617=ORIENTED_EDGE('',*,*,#466,.F.);
#618=ORIENTED_EDGE('',*,*,#468,.F.);
#619=ORIENTED_EDGE('',*,*,#469,.F.);
#620=ORIENTED_EDGE('',*,*,#470,.T.);
#621=ORIENTED_EDGE('',*,*,#418,.T.);
#622=ORIENTED_EDGE('',*,*,#423,.F.);
#623=ORIENTED_EDGE('',*,*,#430,.T.);
#624=ORIENTED_EDGE('',*,*,#465,.F.);
#625=ORIENTED_EDGE('',*,*,#471,.T.);
#626=ORIENTED_EDGE('',*,*,#472,.F.);
#627=ORIENTED_EDGE('',*,*,#473,.T.);
#628=ORIENTED_EDGE('',*,*,#474,.F.);
#629=ORIENTED_EDGE('',*,*,#475,.F.);
#630=ORIENTED_EDGE('',*,*,#476,.F.);
#631=ORIENTED_EDGE('',*,*,#468,.T.);
#632=ORIENTED_EDGE('',*,*,#477,.T.);
#633=ORIENTED_EDGE('',*,*,#469,.T.);
#634=ORIENTED_EDGE('',*,*,#476,.T.);
#635=ORIENTED_EDGE('',*,*,#478,.T.);
#636=ORIENTED_EDGE('',*,*,#478,.F.);
#637=ORIENTED_EDGE('',*,*,#475,.T.);
#638=ORIENTED_EDGE('',*,*,#479,.F.);
#639=ORIENTED_EDGE('',*,*,#480,.F.);
#640=ORIENTED_EDGE('',*,*,#481,.T.);
#641=ORIENTED_EDGE('',*,*,#482,.F.);
#642=ORIENTED_EDGE('',*,*,#483,.T.);
#643=ORIENTED_EDGE('',*,*,#479,.T.);
#644=ORIENTED_EDGE('',*,*,#474,.T.);
#645=ORIENTED_EDGE('',*,*,#484,.T.);
#646=ORIENTED_EDGE('',*,*,#485,.T.);
#647=ORIENTED_EDGE('',*,*,#486,.T.);
#648=ORIENTED_EDGE('',*,*,#454,.T.);
#649=ORIENTED_EDGE('',*,*,#487,.T.);
#650=ORIENTED_EDGE('',*,*,#484,.F.);
#651=ORIENTED_EDGE('',*,*,#473,.F.);
#652=ORIENTED_EDGE('',*,*,#488,.F.);
#653=ORIENTED_EDGE('',*,*,#489,.F.);
#654=ORIENTED_EDGE('',*,*,#483,.F.);
#655=ORIENTED_EDGE('',*,*,#490,.T.);
#656=ORIENTED_EDGE('',*,*,#491,.F.);
#657=ORIENTED_EDGE('',*,*,#480,.T.);
#658=ORIENTED_EDGE('',*,*,#492,.T.);
#659=ORIENTED_EDGE('',*,*,#488,.T.);
#660=ORIENTED_EDGE('',*,*,#472,.T.);
#661=ORIENTED_EDGE('',*,*,#493,.T.);
#662=ORIENTED_EDGE('',*,*,#494,.T.);
#663=ORIENTED_EDGE('',*,*,#495,.T.);
#664=ORIENTED_EDGE('',*,*,#456,.T.);
#665=ORIENTED_EDGE('',*,*,#496,.T.);
#666=ORIENTED_EDGE('',*,*,#486,.F.);
#667=ORIENTED_EDGE('',*,*,#497,.F.);
#668=ORIENTED_EDGE('',*,*,#496,.F.);
#669=ORIENTED_EDGE('',*,*,#455,.F.);
#670=ORIENTED_EDGE('',*,*,#494,.F.);
#671=ORIENTED_EDGE('',*,*,#498,.T.);
#672=ORIENTED_EDGE('',*,*,#499,.F.);
#673=ORIENTED_EDGE('',*,*,#500,.T.);
#674=ORIENTED_EDGE('',*,*,#485,.F.);
#675=ORIENTED_EDGE('',*,*,#489,.T.);
#676=ORIENTED_EDGE('',*,*,#492,.F.);
#677=ORIENTED_EDGE('',*,*,#497,.T.);
#678=ORIENTED_EDGE('',*,*,#495,.F.);
#679=ORIENTED_EDGE('',*,*,#500,.F.);
#680=ORIENTED_EDGE('',*,*,#501,.F.);
#681=ORIENTED_EDGE('',*,*,#457,.F.);
#682=ORIENTED_EDGE('',*,*,#487,.F.);
#683=ORIENTED_EDGE('',*,*,#453,.F.);
#684=ORIENTED_EDGE('',*,*,#502,.F.);
#685=ORIENTED_EDGE('',*,*,#490,.F.);
#686=ORIENTED_EDGE('',*,*,#491,.T.);
#687=ORIENTED_EDGE('',*,*,#502,.T.);
#688=ORIENTED_EDGE('',*,*,#452,.F.);
#689=ORIENTED_EDGE('',*,*,#503,.T.);
#690=ORIENTED_EDGE('',*,*,#504,.F.);
#691=ORIENTED_EDGE('',*,*,#481,.F.);
#692=ORIENTED_EDGE('',*,*,#499,.T.);
#693=ORIENTED_EDGE('',*,*,#505,.T.);
#694=ORIENTED_EDGE('',*,*,#506,.F.);
#695=ORIENTED_EDGE('',*,*,#443,.F.);
#696=ORIENTED_EDGE('',*,*,#458,.F.);
#697=ORIENTED_EDGE('',*,*,#501,.T.);
#698=ORIENTED_EDGE('',*,*,#507,.F.);
#699=ORIENTED_EDGE('',*,*,#508,.T.);
#700=ORIENTED_EDGE('',*,*,#509,.F.);
#701=ORIENTED_EDGE('',*,*,#510,.F.);
#702=ORIENTED_EDGE('',*,*,#511,.F.);
#703=ORIENTED_EDGE('',*,*,#512,.T.);
#704=ORIENTED_EDGE('',*,*,#513,.F.);
#705=ORIENTED_EDGE('',*,*,#508,.F.);
#706=ORIENTED_EDGE('',*,*,#514,.F.);
#707=ORIENTED_EDGE('',*,*,#510,.T.);
#708=ORIENTED_EDGE('',*,*,#515,.F.);
#709=ORIENTED_EDGE('',*,*,#516,.F.);
#710=ORIENTED_EDGE('',*,*,#517,.F.);
#711=ORIENTED_EDGE('',*,*,#516,.T.);
#712=ORIENTED_EDGE('',*,*,#518,.F.);
#713=ORIENTED_EDGE('',*,*,#512,.F.);
#714=ORIENTED_EDGE('',*,*,#464,.F.);
#715=ORIENTED_EDGE('',*,*,#519,.F.);
#716=ORIENTED_EDGE('',*,*,#505,.F.);
#717=ORIENTED_EDGE('',*,*,#498,.F.);
#718=ORIENTED_EDGE('',*,*,#493,.F.);
#719=ORIENTED_EDGE('',*,*,#471,.F.);
#720=ORIENTED_EDGE('',*,*,#463,.F.);
#721=ORIENTED_EDGE('',*,*,#467,.T.);
#722=ORIENTED_EDGE('',*,*,#429,.T.);
#723=ORIENTED_EDGE('',*,*,#444,.T.);
#724=ORIENTED_EDGE('',*,*,#506,.T.);
#725=ORIENTED_EDGE('',*,*,#519,.T.);
#726=ORIENTED_EDGE('',*,*,#513,.T.);
#727=ORIENTED_EDGE('',*,*,#518,.T.);
#728=ORIENTED_EDGE('',*,*,#515,.T.);
#729=ORIENTED_EDGE('',*,*,#509,.T.);
#730=ORIENTED_EDGE('',*,*,#511,.T.);
#731=ORIENTED_EDGE('',*,*,#507,.T.);
#732=ORIENTED_EDGE('',*,*,#514,.T.);
#733=ORIENTED_EDGE('',*,*,#517,.T.);
#734=ORIENTED_EDGE('',*,*,#520,.F.);
#735=ORIENTED_EDGE('',*,*,#521,.T.);
#736=ORIENTED_EDGE('',*,*,#522,.F.);
#737=ORIENTED_EDGE('',*,*,#523,.F.);
#738=ORIENTED_EDGE('',*,*,#524,.F.);
#739=ORIENTED_EDGE('',*,*,#525,.T.);
#740=ORIENTED_EDGE('',*,*,#526,.F.);
#741=ORIENTED_EDGE('',*,*,#521,.F.);
#742=ORIENTED_EDGE('',*,*,#527,.F.);
#743=ORIENTED_EDGE('',*,*,#523,.T.);
#744=ORIENTED_EDGE('',*,*,#528,.F.);
#745=ORIENTED_EDGE('',*,*,#529,.F.);
#746=ORIENTED_EDGE('',*,*,#530,.F.);
#747=ORIENTED_EDGE('',*,*,#529,.T.);
#748=ORIENTED_EDGE('',*,*,#531,.F.);
#749=ORIENTED_EDGE('',*,*,#525,.F.);
#750=ORIENTED_EDGE('',*,*,#434,.T.);
#751=ORIENTED_EDGE('',*,*,#532,.F.);
#752=ORIENTED_EDGE('',*,*,#503,.F.);
#753=ORIENTED_EDGE('',*,*,#451,.F.);
#754=ORIENTED_EDGE('',*,*,#415,.T.);
#755=ORIENTED_EDGE('',*,*,#470,.F.);
#756=ORIENTED_EDGE('',*,*,#477,.F.);
#757=ORIENTED_EDGE('',*,*,#482,.T.);
#758=ORIENTED_EDGE('',*,*,#504,.T.);
#759=ORIENTED_EDGE('',*,*,#532,.T.);
#760=ORIENTED_EDGE('',*,*,#433,.F.);
#761=ORIENTED_EDGE('',*,*,#526,.T.);
#762=ORIENTED_EDGE('',*,*,#531,.T.);
#763=ORIENTED_EDGE('',*,*,#528,.T.);
#764=ORIENTED_EDGE('',*,*,#522,.T.);
#765=ORIENTED_EDGE('',*,*,#524,.T.);
#766=ORIENTED_EDGE('',*,*,#520,.T.);
#767=ORIENTED_EDGE('',*,*,#527,.T.);
#768=ORIENTED_EDGE('',*,*,#530,.T.);
#769=PLANE('',#867);
#770=PLANE('',#868);
#771=PLANE('',#871);
#772=PLANE('',#872);
#773=PLANE('',#873);
#774=PLANE('',#874);
#775=PLANE('',#875);
#776=PLANE('',#876);
#777=PLANE('',#877);
#778=PLANE('',#878);
#779=PLANE('',#882);
#780=PLANE('',#884);
#781=PLANE('',#885);
#782=PLANE('',#891);
#783=PLANE('',#892);
#784=PLANE('',#898);
#785=PLANE('',#902);
#786=PLANE('',#903);
#787=PLANE('',#907);
#788=PLANE('',#908);
#789=PLANE('',#909);
#790=PLANE('',#910);
#791=PLANE('',#911);
#792=PLANE('',#912);
#793=PLANE('',#913);
#794=PLANE('',#914);
#795=PLANE('',#915);
#796=PLANE('',#916);
#797=PLANE('',#917);
#798=PLANE('',#918);
#799=PLANE('',#919);
#800=PLANE('',#920);
#801=PLANE('',#921);
#802=PLANE('',#922);
#803=PLANE('',#923);
#804=PLANE('',#924);
#805=PLANE('',#925);
#806=PLANE('',#926);
#807=PLANE('',#927);
#808=ADVANCED_FACE('',(#40),#769,.T.);
#809=ADVANCED_FACE('',(#41,#21),#770,.T.);
#810=ADVANCED_FACE('',(#42),#771,.T.);
#811=ADVANCED_FACE('',(#43),#772,.T.);
#812=ADVANCED_FACE('',(#44),#773,.T.);
#813=ADVANCED_FACE('',(#45),#774,.T.);
#814=ADVANCED_FACE('',(#46),#775,.T.);
#815=ADVANCED_FACE('',(#47),#776,.T.);
#816=ADVANCED_FACE('',(#48),#777,.T.);
#817=ADVANCED_FACE('',(#49),#778,.T.);
#818=ADVANCED_FACE('',(#50),#779,.T.);
#819=ADVANCED_FACE('',(#51),#780,.T.);
#820=ADVANCED_FACE('',(#52),#781,.T.);
#821=ADVANCED_FACE('',(#53),#15,.F.);
#822=ADVANCED_FACE('',(#54),#16,.T.);
#823=ADVANCED_FACE('',(#55),#17,.T.);
#824=ADVANCED_FACE('',(#56),#782,.T.);
#825=ADVANCED_FACE('',(#57),#783,.F.);
#826=ADVANCED_FACE('',(#58),#18,.T.);
#827=ADVANCED_FACE('',(#59),#784,.T.);
#828=ADVANCED_FACE('',(#60),#19,.T.);
#829=ADVANCED_FACE('',(#61),#785,.T.);
#830=ADVANCED_FACE('',(#62),#786,.T.);
#831=ADVANCED_FACE('',(#63),#20,.T.);
#832=ADVANCED_FACE('',(#64),#787,.T.);
#833=ADVANCED_FACE('',(#65),#788,.T.);
#834=ADVANCED_FACE('',(#66),#789,.T.);
#835=ADVANCED_FACE('',(#67),#790,.T.);
#836=ADVANCED_FACE('',(#68),#791,.T.);
#837=ADVANCED_FACE('',(#69),#792,.T.);
#838=ADVANCED_FACE('',(#70),#793,.T.);
#839=ADVANCED_FACE('',(#71),#794,.T.);
#840=ADVANCED_FACE('',(#72),#795,.T.);
#841=ADVANCED_FACE('',(#73),#796,.T.);
#842=ADVANCED_FACE('',(#74),#797,.T.);
#843=ADVANCED_FACE('',(#75),#798,.T.);
#844=ADVANCED_FACE('',(#76,#22),#799,.T.);
#845=ADVANCED_FACE('',(#77),#800,.T.);
#846=ADVANCED_FACE('',(#78),#801,.T.);
#847=ADVANCED_FACE('',(#79),#802,.T.);
#848=ADVANCED_FACE('',(#80),#803,.T.);
#849=ADVANCED_FACE('',(#81),#804,.T.);
#850=ADVANCED_FACE('',(#82),#805,.T.);
#851=ADVANCED_FACE('',(#83,#23),#806,.T.);
#852=ADVANCED_FACE('',(#84),#807,.T.);
#853=CLOSED_SHELL('',(#808,#809,#810,#811,#812,#813,#814,#815,#816,#817,
#818,#819,#820,#821,#822,#823,#824,#825,#826,#827,#828,#829,#830,#831,#832,
#833,#834,#835,#836,#837,#838,#839,#840,#841,#842,#843,#844,#845,#846,#847,
#848,#849,#850,#851,#852));
#854=DERIVED_UNIT_ELEMENT(#856,1.);
#855=DERIVED_UNIT_ELEMENT(#1401,-3.);
#856=(
MASS_UNIT()
NAMED_UNIT(*)
SI_UNIT(.KILO.,.GRAM.)
);
#857=DERIVED_UNIT((#854,#855));
#858=MEASURE_REPRESENTATION_ITEM('density measure',
POSITIVE_RATIO_MEASURE(7850.),#857);
#859=PROPERTY_DEFINITION_REPRESENTATION(#864,#861);
#860=PROPERTY_DEFINITION_REPRESENTATION(#865,#862);
#861=REPRESENTATION('material name',(#863),#1398);
#862=REPRESENTATION('density',(#858),#1398);
#863=DESCRIPTIVE_REPRESENTATION_ITEM('Steel','Steel');
#864=PROPERTY_DEFINITION('material property','material name',#1408);
#865=PROPERTY_DEFINITION('material property','density of part',#1408);
#866=AXIS2_PLACEMENT_3D('',#1154,#928,#929);
#867=AXIS2_PLACEMENT_3D('',#1155,#930,#931);
#868=AXIS2_PLACEMENT_3D('',#1164,#936,#937);
#869=AXIS2_PLACEMENT_3D('',#1167,#938,#939);
#870=AXIS2_PLACEMENT_3D('',#1178,#945,#946);
#871=AXIS2_PLACEMENT_3D('',#1184,#950,#951);
#872=AXIS2_PLACEMENT_3D('',#1190,#955,#956);
#873=AXIS2_PLACEMENT_3D('',#1198,#961,#962);
#874=AXIS2_PLACEMENT_3D('',#1204,#966,#967);
#875=AXIS2_PLACEMENT_3D('',#1210,#971,#972);
#876=AXIS2_PLACEMENT_3D('',#1216,#976,#977);
#877=AXIS2_PLACEMENT_3D('',#1220,#980,#981);
#878=AXIS2_PLACEMENT_3D('',#1224,#984,#985);
#879=AXIS2_PLACEMENT_3D('',#1226,#986,#987);
#880=AXIS2_PLACEMENT_3D('',#1235,#992,#993);
#881=AXIS2_PLACEMENT_3D('',#1239,#995,#996);
#882=AXIS2_PLACEMENT_3D('',#1243,#999,#1000);
#883=AXIS2_PLACEMENT_3D('',#1246,#1002,#1003);
#884=AXIS2_PLACEMENT_3D('',#1247,#1004,#1005);
#885=AXIS2_PLACEMENT_3D('',#1249,#1007,#1008);
#886=AXIS2_PLACEMENT_3D('',#1251,#1010,#1011);
#887=AXIS2_PLACEMENT_3D('',#1252,#1012,#1013);
#888=AXIS2_PLACEMENT_3D('',#1253,#1014,#1015);
#889=AXIS2_PLACEMENT_3D('',#1256,#1016,#1017);
#890=AXIS2_PLACEMENT_3D('',#1260,#1019,#1020);
#891=AXIS2_PLACEMENT_3D('',#1262,#1022,#1023);
#892=AXIS2_PLACEMENT_3D('',#1269,#1028,#1029);
#893=AXIS2_PLACEMENT_3D('',#1273,#1031,#1032);
#894=AXIS2_PLACEMENT_3D('',#1277,#1034,#1035);
#895=AXIS2_PLACEMENT_3D('',#1280,#1037,#1038);
#896=AXIS2_PLACEMENT_3D('',#1281,#1039,#1040);
#897=AXIS2_PLACEMENT_3D('',#1283,#1041,#1042);
#898=AXIS2_PLACEMENT_3D('',#1285,#1044,#1045);
#899=AXIS2_PLACEMENT_3D('',#1293,#1050,#1051);
#900=AXIS2_PLACEMENT_3D('',#1295,#1052,#1053);
#901=AXIS2_PLACEMENT_3D('',#1299,#1055,#1056);
#902=AXIS2_PLACEMENT_3D('',#1302,#1059,#1060);
#903=AXIS2_PLACEMENT_3D('',#1306,#1063,#1064);
#904=AXIS2_PLACEMENT_3D('',#1310,#1067,#1068);
#905=AXIS2_PLACEMENT_3D('',#1312,#1069,#1070);
#906=AXIS2_PLACEMENT_3D('',#1316,#1072,#1073);
#907=AXIS2_PLACEMENT_3D('',#1319,#1076,#1077);
#908=AXIS2_PLACEMENT_3D('',#1321,#1079,#1080);
#909=AXIS2_PLACEMENT_3D('',#1327,#1084,#1085);
#910=AXIS2_PLACEMENT_3D('',#1328,#1086,#1087);
#911=AXIS2_PLACEMENT_3D('',#1330,#1089,#1090);
#912=AXIS2_PLACEMENT_3D('',#1332,#1092,#1093);
#913=AXIS2_PLACEMENT_3D('',#1336,#1096,#1097);
#914=AXIS2_PLACEMENT_3D('',#1340,#1100,#1101);
#915=AXIS2_PLACEMENT_3D('',#1349,#1106,#1107);
#916=AXIS2_PLACEMENT_3D('',#1355,#1111,#1112);
#917=AXIS2_PLACEMENT_3D('',#1361,#1116,#1117);
#918=AXIS2_PLACEMENT_3D('',#1364,#1120,#1121);
#919=AXIS2_PLACEMENT_3D('',#1366,#1123,#1124);
#920=AXIS2_PLACEMENT_3D('',#1367,#1125,#1126);
#921=AXIS2_PLACEMENT_3D('',#1368,#1127,#1128);
#922=AXIS2_PLACEMENT_3D('',#1377,#1133,#1134);
#923=AXIS2_PLACEMENT_3D('',#1383,#1138,#1139);
#924=AXIS2_PLACEMENT_3D('',#1389,#1143,#1144);
#925=AXIS2_PLACEMENT_3D('',#1392,#1147,#1148);
#926=AXIS2_PLACEMENT_3D('',#1394,#1150,#1151);
#927=AXIS2_PLACEMENT_3D('',#1395,#1152,#1153);
#928=DIRECTION('axis',(0.,0.,1.));
#929=DIRECTION('refdir',(1.,0.,0.));
#930=DIRECTION('center_axis',(-0.999988158398833,0.,0.00486652464393747));
#931=DIRECTION('ref_axis',(0.00486652464393747,0.,0.999988158398833));
#932=DIRECTION('',(-0.00486652464393747,0.,-0.999988158398833));
#933=DIRECTION('',(0.,1.,0.));
#934=DIRECTION('',(0.00486652464393747,0.,0.999988158398833));
#935=DIRECTION('',(0.,1.,0.));
#936=DIRECTION('center_axis',(0.,1.,0.));
#937=DIRECTION('ref_axis',(-1.,0.,0.));
#938=DIRECTION('center_axis',(0.,1.,0.));
#939=DIRECTION('ref_axis',(-1.,0.,2.22235946121719E-16));
#940=DIRECTION('',(0.,0.,-1.));
#941=DIRECTION('',(1.,0.,0.));
#942=DIRECTION('',(0.,0.,-1.));
#943=DIRECTION('',(-1.,0.,0.));
#944=DIRECTION('',(0.,0.,1.));
#945=DIRECTION('center_axis',(0.,-1.,0.));
#946=DIRECTION('ref_axis',(-1.,0.,0.));
#947=DIRECTION('',(0.,0.,-1.));
#948=DIRECTION('',(1.,0.,0.));
#949=DIRECTION('',(0.,0.,1.));
#950=DIRECTION('center_axis',(1.,0.,0.));
#951=DIRECTION('ref_axis',(0.,1.,0.));
#952=DIRECTION('',(0.,0.,1.));
#953=DIRECTION('',(0.,-1.,0.));
#954=DIRECTION('',(0.,1.,0.));
#955=DIRECTION('center_axis',(0.,0.,1.));
#956=DIRECTION('ref_axis',(1.,0.,0.));
#957=DIRECTION('',(0.,-1.,0.));
#958=DIRECTION('',(-1.,0.,0.));
#959=DIRECTION('',(0.,1.,0.));
#960=DIRECTION('',(-1.,0.,0.));
#961=DIRECTION('center_axis',(0.,0.,1.));
#962=DIRECTION('ref_axis',(1.,0.,0.));
#963=DIRECTION('',(0.,-1.,0.));
#964=DIRECTION('',(0.,1.,0.));
#965=DIRECTION('',(-1.,0.,0.));
#966=DIRECTION('center_axis',(0.,0.,1.));
#967=DIRECTION('ref_axis',(1.,0.,0.));
#968=DIRECTION('',(0.,1.,0.));
#969=DIRECTION('',(-1.,0.,0.));
#970=DIRECTION('',(0.,-1.,0.));
#971=DIRECTION('center_axis',(-1.,0.,0.));
#972=DIRECTION('ref_axis',(0.,0.,1.));
#973=DIRECTION('',(0.,0.,-1.));
#974=DIRECTION('',(0.,1.,0.));
#975=DIRECTION('',(0.,0.,1.));
#976=DIRECTION('center_axis',(1.,0.,0.));
#977=DIRECTION('ref_axis',(0.,-1.,0.));
#978=DIRECTION('',(0.,1.,0.));
#979=DIRECTION('',(0.,0.,1.));
#980=DIRECTION('center_axis',(-1.,0.,0.));
#981=DIRECTION('ref_axis',(0.,1.,0.));
#982=DIRECTION('',(0.,0.,-1.));
#983=DIRECTION('',(0.,-1.,0.));
#984=DIRECTION('center_axis',(0.,1.,0.));
#985=DIRECTION('ref_axis',(1.,0.,0.));
#986=DIRECTION('center_axis',(0.,-1.,0.));
#987=DIRECTION('ref_axis',(1.,0.,0.));
#988=DIRECTION('',(0.,0.,-1.));
#989=DIRECTION('',(0.,0.,1.));
#990=DIRECTION('',(-1.,0.,0.));
#991=DIRECTION('',(0.,0.,1.));
#992=DIRECTION('center_axis',(0.,-1.,0.));
#993=DIRECTION('ref_axis',(-0.707106781186547,0.,0.707106781186547));
#994=DIRECTION('',(1.,0.,0.));
#995=DIRECTION('center_axis',(0.,-1.,0.));
#996=DIRECTION('ref_axis',(0.707106781186547,0.,0.707106781186547));
#997=DIRECTION('',(0.,0.,-1.));
#998=DIRECTION('',(-1.,0.,0.));
#999=DIRECTION('center_axis',(0.,1.,0.));
#1000=DIRECTION('ref_axis',(1.,0.,0.));
#1001=DIRECTION('',(0.,0.,1.));
#1002=DIRECTION('center_axis',(0.,1.,0.));
#1003=DIRECTION('ref_axis',(1.,0.,0.));
#1004=DIRECTION('center_axis',(1.,0.,0.));
#1005=DIRECTION('ref_axis',(0.,-1.,0.));
#1006=DIRECTION('',(0.,1.,0.));
#1007=DIRECTION('center_axis',(-1.,0.,0.));
#1008=DIRECTION('ref_axis',(0.,1.,0.));
#1009=DIRECTION('',(0.,-1.,0.));
#1010=DIRECTION('center_axis',(0.,1.,0.));
#1011=DIRECTION('ref_axis',(1.,0.,0.));
#1012=DIRECTION('center_axis',(0.,1.,0.));
#1013=DIRECTION('ref_axis',(1.,0.,0.));
#1014=DIRECTION('center_axis',(0.,1.,0.));
#1015=DIRECTION('ref_axis',(0.707106781186547,0.,-0.707106781186547));
#1016=DIRECTION('center_axis',(0.,-1.,0.));
#1017=DIRECTION('ref_axis',(0.707106781186547,0.,-0.707106781186547));
#1018=DIRECTION('',(0.,-1.,0.));
#1019=DIRECTION('center_axis',(0.,1.,0.));
#1020=DIRECTION('ref_axis',(0.707106781186547,0.,-0.707106781186547));
#1021=DIRECTION('',(0.,1.,0.));
#1022=DIRECTION('center_axis',(0.,0.,-1.));
#1023=DIRECTION('ref_axis',(-1.,0.,0.));
#1024=DIRECTION('',(-1.,0.,0.));
#1025=DIRECTION('',(1.,0.,0.));
#1026=DIRECTION('',(0.,-1.,0.));
#1027=DIRECTION('',(1.,0.,0.));
#1028=DIRECTION('center_axis',(0.,1.,0.));
#1029=DIRECTION('ref_axis',(1.,0.,0.));
#1030=DIRECTION('',(0.,0.,1.));
#1031=DIRECTION('center_axis',(0.,1.,0.));
#1032=DIRECTION('ref_axis',(0.707106781186547,0.,0.707106781186547));
#1033=DIRECTION('',(-1.,0.,0.));
#1034=DIRECTION('center_axis',(0.,1.,0.));
#1035=DIRECTION('ref_axis',(-0.707106781186547,0.,0.707106781186547));
#1036=DIRECTION('',(0.,0.,1.));
#1037=DIRECTION('center_axis',(0.,1.,0.));
#1038=DIRECTION('ref_axis',(-0.707106781186547,0.,-0.707106781186547));
#1039=DIRECTION('center_axis',(0.,1.,0.));
#1040=DIRECTION('ref_axis',(-0.707106781186547,0.,-0.707106781186547));
#1041=DIRECTION('center_axis',(0.,-1.,0.));
#1042=DIRECTION('ref_axis',(-0.707106781186547,0.,-0.707106781186547));
#1043=DIRECTION('',(0.,1.,0.));
#1044=DIRECTION('center_axis',(-1.,0.,0.));
#1045=DIRECTION('ref_axis',(0.,0.,1.));
#1046=DIRECTION('',(0.,-1.,0.));
#1047=DIRECTION('',(0.,0.,1.));
#1048=DIRECTION('',(0.,1.,0.));
#1049=DIRECTION('',(0.,0.,1.));
#1050=DIRECTION('center_axis',(0.,1.,0.));
#1051=DIRECTION('ref_axis',(-0.707106781186547,0.,0.707106781186547));
#1052=DIRECTION('center_axis',(0.,-1.,0.));
#1053=DIRECTION('ref_axis',(-0.707106781186547,0.,0.707106781186547));
#1054=DIRECTION('',(0.,1.,0.));
#1055=DIRECTION('center_axis',(0.,-1.,0.));
#1056=DIRECTION('ref_axis',(-0.707106781186547,0.,0.707106781186547));
#1057=DIRECTION('',(0.,-1.,0.));
#1058=DIRECTION('',(0.,1.,0.));
#1059=DIRECTION('center_axis',(0.,0.,1.));
#1060=DIRECTION('ref_axis',(1.,0.,0.));
#1061=DIRECTION('',(0.,-1.,0.));
#1062=DIRECTION('',(1.,0.,0.));
#1063=DIRECTION('center_axis',(0.,1.,0.));
#1064=DIRECTION('ref_axis',(0.,0.,1.));
#1065=DIRECTION('',(0.,0.,-1.));
#1066=DIRECTION('',(1.,0.,0.));
#1067=DIRECTION('center_axis',(0.,1.,0.));
#1068=DIRECTION('ref_axis',(0.707106781186547,0.,0.707106781186547));
#1069=DIRECTION('center_axis',(0.,-1.,0.));
#1070=DIRECTION('ref_axis',(0.707106781186547,0.,0.707106781186547));
#1071=DIRECTION('',(0.,1.,0.));
#1072=DIRECTION('center_axis',(0.,-1.,0.));
#1073=DIRECTION('ref_axis',(0.707106781186547,0.,0.707106781186547));
#1074=DIRECTION('',(0.,-1.,0.));
#1075=DIRECTION('',(0.,1.,0.));
#1076=DIRECTION('center_axis',(0.,0.,-1.));
#1077=DIRECTION('ref_axis',(-1.,0.,0.));
#1078=DIRECTION('',(-1.,0.,0.));
#1079=DIRECTION('center_axis',(0.,1.,0.));
#1080=DIRECTION('ref_axis',(0.,0.,1.));
#1081=DIRECTION('',(0.,0.,-1.));
#1082=DIRECTION('',(1.,0.,0.));
#1083=DIRECTION('',(0.,0.,1.));
#1084=DIRECTION('center_axis',(0.,1.,0.));
#1085=DIRECTION('ref_axis',(0.,0.,1.));
#1086=DIRECTION('center_axis',(-1.,0.,0.));
#1087=DIRECTION('ref_axis',(0.,0.,1.));
#1088=DIRECTION('',(0.,1.,0.));
#1089=DIRECTION('center_axis',(1.,0.,0.));
#1090=DIRECTION('ref_axis',(0.,0.,-1.));
#1091=DIRECTION('',(0.,-1.,0.));
#1092=DIRECTION('center_axis',(0.,0.,1.));
#1093=DIRECTION('ref_axis',(1.,0.,0.));
#1094=DIRECTION('',(0.,1.,0.));
#1095=DIRECTION('',(1.,0.,0.));
#1096=DIRECTION('center_axis',(0.,0.,1.));
#1097=DIRECTION('ref_axis',(1.,0.,0.));
#1098=DIRECTION('',(0.,1.,0.));
#1099=DIRECTION('',(1.,0.,0.));
#1100=DIRECTION('center_axis',(-1.,0.,0.));
#1101=DIRECTION('ref_axis',(0.,0.,1.));
#1102=DIRECTION('',(0.,0.,-1.));
#1103=DIRECTION('',(0.,1.,0.));
#1104=DIRECTION('',(0.,0.,1.));
#1105=DIRECTION('',(0.,1.,0.));
#1106=DIRECTION('center_axis',(0.,0.,-1.));
#1107=DIRECTION('ref_axis',(-1.,0.,0.));
#1108=DIRECTION('',(1.,0.,0.));
#1109=DIRECTION('',(0.,1.,0.));
#1110=DIRECTION('',(-1.,0.,0.));
#1111=DIRECTION('center_axis',(0.,0.,1.));
#1112=DIRECTION('ref_axis',(1.,0.,0.));
#1113=DIRECTION('',(-1.,0.,0.));
#1114=DIRECTION('',(1.,0.,0.));
#1115=DIRECTION('',(0.,1.,0.));
#1116=DIRECTION('center_axis',(1.,0.,0.));
#1117=DIRECTION('ref_axis',(0.,0.,-1.));
#1118=DIRECTION('',(0.,0.,1.));
#1119=DIRECTION('',(0.,0.,-1.));
#1120=DIRECTION('center_axis',(1.,0.,0.));
#1121=DIRECTION('ref_axis',(0.,0.,-1.));
#1122=DIRECTION('',(0.,0.,-1.));
#1123=DIRECTION('center_axis',(0.,1.,0.));
#1124=DIRECTION('ref_axis',(0.,0.,1.));
#1125=DIRECTION('center_axis',(0.,1.,0.));
#1126=DIRECTION('ref_axis',(0.,0.,1.));
#1127=DIRECTION('center_axis',(0.,0.,1.));
#1128=DIRECTION('ref_axis',(1.,0.,0.));
#1129=DIRECTION('',(-1.,0.,0.));
#1130=DIRECTION('',(0.,1.,0.));
#1131=DIRECTION('',(1.,0.,0.));
#1132=DIRECTION('',(0.,1.,0.));
#1133=DIRECTION('center_axis',(-1.,0.,0.));
#1134=DIRECTION('ref_axis',(0.,0.,1.));
#1135=DIRECTION('',(0.,0.,-1.));
#1136=DIRECTION('',(0.,1.,0.));
#1137=DIRECTION('',(0.,0.,1.));
#1138=DIRECTION('center_axis',(1.,0.,0.));
#1139=DIRECTION('ref_axis',(0.,0.,-1.));
#1140=DIRECTION('',(0.,0.,1.));
#1141=DIRECTION('',(0.,0.,-1.));
#1142=DIRECTION('',(0.,1.,0.));
#1143=DIRECTION('center_axis',(0.,0.,-1.));
#1144=DIRECTION('ref_axis',(-1.,0.,0.));
#1145=DIRECTION('',(1.,0.,0.));
#1146=DIRECTION('',(-1.,0.,0.));
#1147=DIRECTION('center_axis',(1.,0.,0.));
#1148=DIRECTION('ref_axis',(0.,0.,-1.));
#1149=DIRECTION('',(0.,0.,-1.));
#1150=DIRECTION('center_axis',(0.,1.,0.));
#1151=DIRECTION('ref_axis',(0.,0.,1.));
#1152=DIRECTION('center_axis',(0.,1.,0.));
#1153=DIRECTION('ref_axis',(0.,0.,1.));
#1154=CARTESIAN_POINT('',(0.,0.,0.));
#1155=CARTESIAN_POINT('Origin',(20.0026198974427,50.,-50.));
#1156=CARTESIAN_POINT('',(20.0172196442589,50.,-47.));
#1157=CARTESIAN_POINT('',(20.0026198974427,50.,-50.));
#1158=CARTESIAN_POINT('',(20.0630362505383,50.,-37.5854655858873));
#1159=CARTESIAN_POINT('',(20.0172196442589,65.,-47.));
#1160=CARTESIAN_POINT('',(20.0172196442589,50.,-47.));
#1161=CARTESIAN_POINT('',(20.0026198974427,65.,-50.));
#1162=CARTESIAN_POINT('',(20.0172196442589,65.,-47.));
#1163=CARTESIAN_POINT('',(20.0026198974427,50.,-50.));
#1164=CARTESIAN_POINT('Origin',(40.0013099487213,65.,-30.0086098221294));
#1165=CARTESIAN_POINT('',(20.0172196442589,65.,-30.));
#1166=CARTESIAN_POINT('',(59.9827803557411,65.,-30.));
#1167=CARTESIAN_POINT('Origin',(40.,65.,-30.));
#1168=CARTESIAN_POINT('',(59.9827803557411,65.,-47.));
#1169=CARTESIAN_POINT('',(59.9827803557411,65.,-30.));
#1170=CARTESIAN_POINT('',(60.,65.,-47.));
#1171=CARTESIAN_POINT('',(59.9827803557411,65.,-47.));
#1172=CARTESIAN_POINT('',(60.,65.,-50.));
#1173=CARTESIAN_POINT('',(60.,65.,-47.));
#1174=CARTESIAN_POINT('',(60.,65.,-50.));
#1175=CARTESIAN_POINT('',(20.0172196442589,65.,-47.));
#1176=CARTESIAN_POINT('',(58.0190989657946,65.,-30.));
#1177=CARTESIAN_POINT('',(21.9809010342054,65.,-30.));
#1178=CARTESIAN_POINT('Origin',(40.,65.,-30.));
#1179=CARTESIAN_POINT('',(21.9809010342054,65.,-47.));
#1180=CARTESIAN_POINT('',(21.9809010342054,65.,-30.));
#1181=CARTESIAN_POINT('',(58.0190989657946,65.,-47.));
#1182=CARTESIAN_POINT('',(21.9809010342054,65.,-47.));
#1183=CARTESIAN_POINT('',(58.0190989657946,65.,-47.));
#1184=CARTESIAN_POINT('Origin',(60.,5.,-50.));
#1185=CARTESIAN_POINT('',(60.,20.,-50.));
#1186=CARTESIAN_POINT('',(60.,20.,-47.));
#1187=CARTESIAN_POINT('',(60.,20.,-30.));
#1188=CARTESIAN_POINT('',(60.,50.,-50.));
#1189=CARTESIAN_POINT('',(60.,50.,-47.));
#1190=CARTESIAN_POINT('Origin',(40.,27.5,-47.));
#1191=CARTESIAN_POINT('',(20.0172196442589,5.,-47.));
#1192=CARTESIAN_POINT('',(20.0172196442589,16.25,-47.));
#1193=CARTESIAN_POINT('',(20.,50.,-47.));
#1194=CARTESIAN_POINT('',(20.,50.,-47.));
#1195=CARTESIAN_POINT('',(20.,5.,-47.));
#1196=CARTESIAN_POINT('',(20.,13.75,-47.));
#1197=CARTESIAN_POINT('',(40.,5.,-47.));
#1198=CARTESIAN_POINT('Origin',(40.,27.5,-47.));
#1199=CARTESIAN_POINT('',(58.0190989657946,5.,-47.));
#1200=CARTESIAN_POINT('',(58.0190989657946,16.25,-47.));
#1201=CARTESIAN_POINT('',(21.9809010342054,5.,-47.));
#1202=CARTESIAN_POINT('',(21.9809010342054,38.75,-47.));
#1203=CARTESIAN_POINT('',(40.,5.,-47.));
#1204=CARTESIAN_POINT('Origin',(40.,27.5,-47.));
#1205=CARTESIAN_POINT('',(59.9827803557411,5.,-47.));
#1206=CARTESIAN_POINT('',(59.9827803557411,38.75,-47.));
#1207=CARTESIAN_POINT('',(60.,5.,-47.));
#1208=CARTESIAN_POINT('',(40.,5.,-47.));
#1209=CARTESIAN_POINT('',(60.,13.75,-47.));
#1210=CARTESIAN_POINT('Origin',(60.,0.,-50.));
#1211=CARTESIAN_POINT('',(60.,5.,-30.));
#1212=CARTESIAN_POINT('',(60.,5.,-30.));
#1213=CARTESIAN_POINT('',(60.,20.,-30.));
#1214=CARTESIAN_POINT('',(60.,0.,-30.));
#1215=CARTESIAN_POINT('',(60.,20.,-30.));
#1216=CARTESIAN_POINT('Origin',(59.9827803557411,50.,-30.));
#1217=CARTESIAN_POINT('',(59.9827803557411,5.,-30.));
#1218=CARTESIAN_POINT('',(59.9827803557411,0.,-30.));
#1219=CARTESIAN_POINT('',(59.9827803557411,5.,-30.));
#1220=CARTESIAN_POINT('Origin',(58.0190989657946,5.,-30.));
#1221=CARTESIAN_POINT('',(58.0190989657946,5.,-30.));
#1222=CARTESIAN_POINT('',(58.0190989657946,5.,-30.));
#1223=CARTESIAN_POINT('',(58.0190989657946,0.,-30.));
#1224=CARTESIAN_POINT('Origin',(40.,5.,-30.));
#1225=CARTESIAN_POINT('',(20.0172196442589,5.,-30.));
#1226=CARTESIAN_POINT('Origin',(40.,5.,-30.));
#1227=CARTESIAN_POINT('',(20.0172196442589,5.,-30.));
#1228=CARTESIAN_POINT('',(20.,5.,0.));
#1229=CARTESIAN_POINT('',(20.,5.,0.));
#1230=CARTESIAN_POINT('',(-48.0000007152557,5.,0.));
#1231=CARTESIAN_POINT('',(-50.,5.,0.));
#1232=CARTESIAN_POINT('',(-48.0000007152557,5.,38.7177964102629));
#1233=CARTESIAN_POINT('',(-48.0000007152557,5.,0.));
#1234=CARTESIAN_POINT('',(-38.7177964102629,5.,48.0000007152557));
#1235=CARTESIAN_POINT('Origin',(-30.,5.,30.));
#1236=CARTESIAN_POINT('',(88.7177964102629,5.,48.0000007152557));
#1237=CARTESIAN_POINT('',(-48.0000007152557,5.,48.0000007152557));
#1238=CARTESIAN_POINT('',(98.0000014603138,5.,38.7177948719101));
#1239=CARTESIAN_POINT('Origin',(80.,5.,30.));
#1240=CARTESIAN_POINT('',(98.0000014603138,5.,-30.));
#1241=CARTESIAN_POINT('',(98.0000014603138,5.,48.0000007152557));
#1242=CARTESIAN_POINT('',(100.,5.,-30.));
#1243=CARTESIAN_POINT('Origin',(40.,5.,-30.));
#1244=CARTESIAN_POINT('',(21.9809010342054,5.,-30.));
#1245=CARTESIAN_POINT('',(21.9809010342054,5.,-30.));
#1246=CARTESIAN_POINT('Origin',(40.,5.,-30.));
#1247=CARTESIAN_POINT('Origin',(21.9809010342054,50.,-30.));
#1248=CARTESIAN_POINT('',(21.9809010342054,0.,-30.));
#1249=CARTESIAN_POINT('Origin',(20.0172196442589,5.,-30.));
#1250=CARTESIAN_POINT('',(20.0172196442589,0.,-30.));
#1251=CARTESIAN_POINT('Origin',(40.,0.,-30.));
#1252=CARTESIAN_POINT('Origin',(40.,0.,-30.));
#1253=CARTESIAN_POINT('Origin',(95.,0.,-45.));
#1254=CARTESIAN_POINT('',(95.,20.,-50.));
#1255=CARTESIAN_POINT('',(100.,20.,-45.));
#1256=CARTESIAN_POINT('Origin',(95.,20.,-45.));
#1257=CARTESIAN_POINT('',(100.,0.,-45.));
#1258=CARTESIAN_POINT('',(100.,0.,-45.));
#1259=CARTESIAN_POINT('',(95.,0.,-50.));
#1260=CARTESIAN_POINT('Origin',(95.,0.,-45.));
#1261=CARTESIAN_POINT('',(95.,0.,-50.));
#1262=CARTESIAN_POINT('Origin',(60.,0.,-50.));
#1263=CARTESIAN_POINT('',(60.,20.,-50.));
#1264=CARTESIAN_POINT('',(-45.,0.,-50.));
#1265=CARTESIAN_POINT('',(60.,0.,-50.));
#1266=CARTESIAN_POINT('',(-45.,50.,-50.));
#1267=CARTESIAN_POINT('',(-45.,0.,-50.));
#1268=CARTESIAN_POINT('',(20.,50.,-50.));
#1269=CARTESIAN_POINT('Origin',(40.,0.,-30.));
#1270=CARTESIAN_POINT('',(100.,0.,30.));
#1271=CARTESIAN_POINT('',(100.,0.,-50.));
#1272=CARTESIAN_POINT('',(80.,0.,50.));
#1273=CARTESIAN_POINT('Origin',(80.,0.,30.));
#1274=CARTESIAN_POINT('',(-30.,0.,50.));
#1275=CARTESIAN_POINT('',(100.,0.,50.));
#1276=CARTESIAN_POINT('',(-50.,0.,30.));
#1277=CARTESIAN_POINT('Origin',(-30.,0.,30.));
#1278=CARTESIAN_POINT('',(-50.,0.,-45.));
#1279=CARTESIAN_POINT('',(-50.,0.,-50.));
#1280=CARTESIAN_POINT('Origin',(-45.,0.,-45.));
#1281=CARTESIAN_POINT('Origin',(-45.,0.,-45.));
#1282=CARTESIAN_POINT('',(-50.,50.,-45.));
#1283=CARTESIAN_POINT('Origin',(-45.,50.,-45.));
#1284=CARTESIAN_POINT('',(-50.,0.,-45.));
#1285=CARTESIAN_POINT('Origin',(-50.,0.,-50.));
#1286=CARTESIAN_POINT('',(-50.,10.,30.));
#1287=CARTESIAN_POINT('',(-50.,0.,30.));
#1288=CARTESIAN_POINT('',(-50.,10.,0.));
#1289=CARTESIAN_POINT('',(-50.,10.,50.));
#1290=CARTESIAN_POINT('',(-50.,50.,0.));
#1291=CARTESIAN_POINT('',(-50.,0.,0.));
#1292=CARTESIAN_POINT('',(-50.,50.,-50.));
#1293=CARTESIAN_POINT('Origin',(-30.,0.,30.));
#1294=CARTESIAN_POINT('',(-48.0000007152557,10.,38.7177964102629));
#1295=CARTESIAN_POINT('Origin',(-30.,10.,30.));
#1296=CARTESIAN_POINT('',(-30.,10.,50.));
#1297=CARTESIAN_POINT('',(-30.,0.,50.));
#1298=CARTESIAN_POINT('',(-38.7177964102629,10.,48.0000007152557));
#1299=CARTESIAN_POINT('Origin',(-30.,10.,30.));
#1300=CARTESIAN_POINT('',(-38.7177964102629,0.,48.0000007152557));
#1301=CARTESIAN_POINT('',(-48.0000007152557,0.,38.7177964102629));
#1302=CARTESIAN_POINT('Origin',(-50.,0.,50.));
#1303=CARTESIAN_POINT('',(80.,10.,50.));
#1304=CARTESIAN_POINT('',(80.,0.,50.));
#1305=CARTESIAN_POINT('',(100.,10.,50.));
#1306=CARTESIAN_POINT('Origin',(25.,10.,10.));
#1307=CARTESIAN_POINT('',(-48.0000007152557,10.,0.));
#1308=CARTESIAN_POINT('',(-48.0000007152557,10.,0.));
#1309=CARTESIAN_POINT('',(-12.5,10.,0.));
#1310=CARTESIAN_POINT('Origin',(80.,0.,30.));
#1311=CARTESIAN_POINT('',(88.7177964102629,10.,48.0000007152557));
#1312=CARTESIAN_POINT('Origin',(80.,10.,30.));
#1313=CARTESIAN_POINT('',(100.,10.,30.));
#1314=CARTESIAN_POINT('',(100.,0.,30.));
#1315=CARTESIAN_POINT('',(98.0000014603138,10.,38.7177948719101));
#1316=CARTESIAN_POINT('Origin',(80.,10.,30.));
#1317=CARTESIAN_POINT('',(98.0000014603138,0.,38.7177948719101));
#1318=CARTESIAN_POINT('',(88.7177964102629,0.,48.0000007152557));
#1319=CARTESIAN_POINT('Origin',(98.0000014603138,0.,48.0000007152557));
#1320=CARTESIAN_POINT('',(-48.0000007152557,10.,48.0000007152557));
#1321=CARTESIAN_POINT('Origin',(25.,10.,10.));
#1322=CARTESIAN_POINT('',(100.,10.,-30.));
#1323=CARTESIAN_POINT('',(100.,10.,-50.));
#1324=CARTESIAN_POINT('',(98.0000014603138,10.,-30.));
#1325=CARTESIAN_POINT('',(42.5,10.,-30.));
#1326=CARTESIAN_POINT('',(98.0000014603138,10.,48.0000007152557));
#1327=CARTESIAN_POINT('Origin',(25.,10.,10.));
#1328=CARTESIAN_POINT('Origin',(98.0000014603138,0.,-30.));
#1329=CARTESIAN_POINT('',(98.0000014603138,0.,-30.));
#1330=CARTESIAN_POINT('Origin',(-48.0000007152557,0.,48.0000007152557));
#1331=CARTESIAN_POINT('',(-48.0000007152557,0.,0.));
#1332=CARTESIAN_POINT('Origin',(-50.,0.,0.));
#1333=CARTESIAN_POINT('',(20.,50.,0.));
#1334=CARTESIAN_POINT('',(20.,0.,0.));
#1335=CARTESIAN_POINT('',(-50.,50.,0.));
#1336=CARTESIAN_POINT('Origin',(60.,0.,-30.));
#1337=CARTESIAN_POINT('',(100.,20.,-30.));
#1338=CARTESIAN_POINT('',(100.,0.,-30.));
#1339=CARTESIAN_POINT('',(100.,20.,-30.));
#1340=CARTESIAN_POINT('Origin',(98.0000014603138,0.,-48.0000007152557));
#1341=CARTESIAN_POINT('',(98.0000014603138,5.,-32.0000004768372));
#1342=CARTESIAN_POINT('',(98.0000014603138,5.,-48.0000007152557));
#1343=CARTESIAN_POINT('',(98.0000014603138,5.,-48.0000007152557));
#1344=CARTESIAN_POINT('',(98.0000014603138,20.,-32.0000004768372));
#1345=CARTESIAN_POINT('',(98.0000014603138,0.,-32.0000004768372));
#1346=CARTESIAN_POINT('',(98.0000014603138,20.,-48.0000007152557));
#1347=CARTESIAN_POINT('',(98.0000014603138,20.,-48.0000007152557));
#1348=CARTESIAN_POINT('',(98.0000014603138,0.,-48.0000007152557));
#1349=CARTESIAN_POINT('Origin',(98.0000014603138,0.,-32.0000004768372));
#1350=CARTESIAN_POINT('',(62.000000923872,5.,-32.0000004768372));
#1351=CARTESIAN_POINT('',(98.0000014603138,5.,-32.0000004768372));
#1352=CARTESIAN_POINT('',(62.000000923872,20.,-32.0000004768372));
#1353=CARTESIAN_POINT('',(62.000000923872,0.,-32.0000004768372));
#1354=CARTESIAN_POINT('',(98.0000014603138,20.,-32.0000004768372));
#1355=CARTESIAN_POINT('Origin',(62.000000923872,0.,-48.0000007152557));
#1356=CARTESIAN_POINT('',(62.000000923872,5.,-48.0000007152557));
#1357=CARTESIAN_POINT('',(62.000000923872,5.,-48.0000007152557));
#1358=CARTESIAN_POINT('',(62.000000923872,20.,-48.0000007152557));
#1359=CARTESIAN_POINT('',(62.000000923872,20.,-48.0000007152557));
#1360=CARTESIAN_POINT('',(62.000000923872,0.,-48.0000007152557));
#1361=CARTESIAN_POINT('Origin',(62.000000923872,0.,-32.0000004768372));
#1362=CARTESIAN_POINT('',(62.000000923872,5.,-32.0000004768372));
#1363=CARTESIAN_POINT('',(62.000000923872,20.,-32.0000004768372));
#1364=CARTESIAN_POINT('Origin',(100.,0.,-30.));
#1365=CARTESIAN_POINT('',(100.,20.,-50.));
#1366=CARTESIAN_POINT('Origin',(80.,20.,-40.));
#1367=CARTESIAN_POINT('Origin',(80.0000011920929,5.,-40.0000005960464));
#1368=CARTESIAN_POINT('Origin',(-48.0000007152557,0.,-48.0000007152557));
#1369=CARTESIAN_POINT('',(18.0000002682209,5.,-48.0000007152557));
#1370=CARTESIAN_POINT('',(-48.0000007152557,5.,-48.0000007152557));
#1371=CARTESIAN_POINT('',(18.0000002682209,5.,-48.0000007152557));
#1372=CARTESIAN_POINT('',(18.0000002682209,50.,-48.0000007152557));
#1373=CARTESIAN_POINT('',(18.0000002682209,0.,-48.0000007152557));
#1374=CARTESIAN_POINT('',(-48.0000007152557,50.,-48.0000007152557));
#1375=CARTESIAN_POINT('',(18.0000002682209,50.,-48.0000007152557));
#1376=CARTESIAN_POINT('',(-48.0000007152557,0.,-48.0000007152557));
#1377=CARTESIAN_POINT('Origin',(18.0000002682209,0.,-48.0000007152557));
#1378=CARTESIAN_POINT('',(18.0000002682209,5.,-2.00000002980232));
#1379=CARTESIAN_POINT('',(18.0000002682209,5.,-2.00000002980232));
#1380=CARTESIAN_POINT('',(18.0000002682209,50.,-2.00000002980232));
#1381=CARTESIAN_POINT('',(18.0000002682209,0.,-2.00000002980232));
#1382=CARTESIAN_POINT('',(18.0000002682209,50.,-2.00000002980232));
#1383=CARTESIAN_POINT('Origin',(-48.0000007152557,0.,-2.00000002980232));
#1384=CARTESIAN_POINT('',(-48.0000007152557,5.,-2.00000002980232));
#1385=CARTESIAN_POINT('',(-48.0000007152557,5.,-48.0000007152557));
#1386=CARTESIAN_POINT('',(-48.0000007152557,50.,-2.00000002980232));
#1387=CARTESIAN_POINT('',(-48.0000007152557,50.,-48.0000007152557));
#1388=CARTESIAN_POINT('',(-48.0000007152557,0.,-2.00000002980232));
#1389=CARTESIAN_POINT('Origin',(18.0000002682209,0.,-2.00000002980232));
#1390=CARTESIAN_POINT('',(-48.0000007152557,5.,-2.00000002980232));
#1391=CARTESIAN_POINT('',(-48.0000007152557,50.,-2.00000002980232));
#1392=CARTESIAN_POINT('Origin',(20.,0.,0.));
#1393=CARTESIAN_POINT('',(20.,50.,0.));
#1394=CARTESIAN_POINT('Origin',(-15.,50.,-25.));
#1395=CARTESIAN_POINT('Origin',(-15.0000002235174,5.,-25.000000372529));
#1396=UNCERTAINTY_MEASURE_WITH_UNIT(LENGTH_MEASURE(0.01),#1400,
'DISTANCE_ACCURACY_VALUE',
'Maximum model space distance between geometric entities at asserted c
onnectivities');
#1397=UNCERTAINTY_MEASURE_WITH_UNIT(LENGTH_MEASURE(0.01),#1400,
'DISTANCE_ACCURACY_VALUE',
'Maximum model space distance between geometric entities at asserted c
onnectivities');
#1398=(
GEOMETRIC_REPRESENTATION_CONTEXT(3)
GLOBAL_UNCERTAINTY_ASSIGNED_CONTEXT((#1396))
GLOBAL_UNIT_ASSIGNED_CONTEXT((#1400,#1402,#1403))
REPRESENTATION_CONTEXT('','3D')
);
#1399=(
GEOMETRIC_REPRESENTATION_CONTEXT(3)
GLOBAL_UNCERTAINTY_ASSIGNED_CONTEXT((#1397))
GLOBAL_UNIT_ASSIGNED_CONTEXT((#1400,#1402,#1403))
REPRESENTATION_CONTEXT('','3D')
);
#1400=(
LENGTH_UNIT()
NAMED_UNIT(*)
SI_UNIT(.MILLI.,.METRE.)
);
#1401=(
LENGTH_UNIT()
NAMED_UNIT(*)
SI_UNIT($,.METRE.)
);
#1402=(
NAMED_UNIT(*)
PLANE_ANGLE_UNIT()
SI_UNIT($,.RADIAN.)
);
#1403=(
NAMED_UNIT(*)
SI_UNIT($,.STERADIAN.)
SOLID_ANGLE_UNIT()
);
#1404=SHAPE_DEFINITION_REPRESENTATION(#1405,#1406);
#1405=PRODUCT_DEFINITION_SHAPE('',$,#1408);
#1406=SHAPE_REPRESENTATION('',(#866),#1398);
#1407=PRODUCT_DEFINITION_CONTEXT('part definition',#1412,'design');
#1408=PRODUCT_DEFINITION('2026-09-10-19-31-48-348',
'Desk Organiser - Ansh A Gandhi',#1409,#1407);
#1409=PRODUCT_DEFINITION_FORMATION('',$,#1414);
#1410=PRODUCT_RELATED_PRODUCT_CATEGORY('Desk Organiser - Ansh A Gandhi',
'Desk Organiser - Ansh A Gandhi',(#1414));
#1411=APPLICATION_PROTOCOL_DEFINITION('international standard',
'automotive_design',2009,#1412);
#1412=APPLICATION_CONTEXT(
'Core Data for Automotive Mechanical Design Process');
#1413=PRODUCT_CONTEXT('part definition',#1412,'mechanical');
#1414=PRODUCT('2026-09-10-19-31-48-348',
'Desk Organiser - Ansh A Gandhi',$,(#1413));
#1415=PRESENTATION_STYLE_ASSIGNMENT((#1416));
#1416=SURFACE_STYLE_USAGE(.BOTH.,#1417);
#1417=SURFACE_SIDE_STYLE('',(#1418));
#1418=SURFACE_STYLE_FILL_AREA(#1419);
#1419=FILL_AREA_STYLE('Steel - Satin',(#1420));
#1420=FILL_AREA_STYLE_COLOUR('Steel - Satin',#1421);
#1421=COLOUR_RGB('Steel - Satin',0.627450980392157,0.627450980392157,0.627450980392157);
ENDSEC;
END-ISO-10303-21;
